#!OML:ASF \\sashay\E\basketball\basketball\Project 1\Capture day 1\Session 1\Subject.ASF
:FULLY-SPECIFIED
:DEGREES
211
root -34.6842 15.5176 -0.127717 -177.436 64.8316 178.808
lowerback 12.9697 4.1319 -4.16615
upperback 7.93841 5.58613 0.863426
thorax 0.649337 2.8786 2.53841
lowerneck 11.2434 -17.5432 -23.7216
upperneck -15.3811 -24.3445 35.7635
head 1.89921 -13.4516 14.3394
rclavicle -5.80451e-014 2.5842e-014
rhumerus 56.413 24.4803 -69.4169
rradius 93.727
rwrist 1.9519
rhand -22.5548 25.3967
rfingers 7.12502
rthumb 3.873 -4.54789
lclavicle -5.80451e-014 2.5842e-014
lhumerus 58.2656 -7.89299 67.4149
lradius 101.988
lwrist 26.1921
lhand -27.0317 34.6459
lfingers 7.12502
lthumb -0.450685 64.6251
rfemur -20.59 -13.7327 12.0371
rtibia 60.1714
rfoot -10.2748 -18.706
rtoes -29.9991
lfemur -22.9729 5.19935 -21.5913
ltibia 46.7505
lfoot -16.6444 -9.8221
ltoes 3.9285
212
root -34.6837 15.5136 -0.135209 -177.478 64.7014 178.793
lowerback 13.2379 4.18448 -4.0687
upperback 7.88815 5.65315 0.632461
thorax 0.4798 2.92504 2.21255
lowerneck 11.2692 -17.6207 -23.6348
upperneck -15.3834 -24.4255 36.1772
head 1.98829 -13.5205 14.4546
rclavicle 3.12092e-014 -3.57812e-015
rhumerus 55.9746 24.774 -69.701
rradius 93.8378
rwrist 2.28861
rhand -22.5879 25.4895
rfingers 7.12502
rthumb 3.84102 -4.45563
lclavicle 3.12092e-014 -3.57812e-015
lhumerus 57.4801 -7.97139 67.2719
lradius 102.815
lwrist 26.5379
lhand -27.2406 34.788
lfingers 7.12502
lthumb -0.652447 64.7668
rfemur -20.5419 -13.7788 12.2222
rtibia 60.8054
rfoot -10.628 -18.2357
rtoes -29.8215
lfemur -22.991 5.05287 -21.637
ltibia 46.8792
lfoot -16.8023 -9.69532
ltoes 3.65834
213
root -34.6827 15.5201 -0.149193 -177.409 64.4686 178.885
lowerback 13.5147 4.1836 -3.80216
upperback 7.79642 5.664 0.368614
thorax 0.283478 2.94846 1.76421
lowerneck 11.3984 -17.6886 -23.2298
upperneck -15.5021 -24.4272 36.3102
head 1.9035 -13.5562 14.4707
rclavicle -4.92986e-014 -6.16232e-015
rhumerus 55.5482 25.0377 -69.8475
rradius 94.1275
rwrist 2.47833
rhand -22.563 25.3539
rfingers 7.12502
rthumb 3.86511 -4.59084
lclavicle -4.92986e-014 -6.16232e-015
lhumerus 56.7168 -8.25307 67.1711
lradius 103.535
lwrist 26.7178
lhand -27.6654 34.8704
lfingers 7.12502
lthumb -1.06279 64.8475
rfemur -20.4454 -14.0053 12.4367
rtibia 61.4913
rfoot -11.333 -17.4418
rtoes -28.1676
lfemur -22.9916 4.86573 -21.6686
ltibia 46.9684
lfoot -16.9717 -9.51698
ltoes 2.5581
214
root -34.6809 15.512 -0.158266 -177.329 64.3893 179.023
lowerback 13.7697 4.27973 -3.79221
upperback 7.68095 5.77104 0.27609
thorax 0.0303212 3.00716 1.62061
lowerneck 11.774 -17.6942 -22.9235
upperneck -15.697 -24.3895 36.3208
head 1.73388 -13.587 14.5061
rclavicle 8.56762e-014 -6.57977e-014
rhumerus 54.8654 25.5326 -70.1717
rradius 94.31
rwrist 2.80442
rhand -22.581 25.3815
rfingers 7.12502
rthumb 3.84774 -4.56355
lclavicle 8.56762e-014 -6.57977e-014
lhumerus 55.7458 -8.5137 67.2532
lradius 104.295
lwrist 26.7674
lhand -27.9786 35.0119
lfingers 7.12502
lthumb -1.3652 64.9873
rfemur -20.4117 -14.0125 12.7104
rtibia 62.0759
rfoot -11.2047 -17.2056
rtoes -29.2763
lfemur -23.0009 4.79959 -21.64
ltibia 47.092
lfoot -16.9899 -9.60446
ltoes 3.0269
215
root -34.6804 15.4962 -0.16955 -177.568 64.167 178.862
lowerback 14.0141 4.28687 -3.90591
upperback 7.59004 5.75016 0.204292
thorax -0.19613 2.99851 1.58729
lowerneck 12.2032 -17.6075 -22.9522
upperneck -15.7754 -24.3198 36.4653
head 1.652 -13.6007 14.6457
rclavicle 4.7112e-014 1.45113e-014
rhumerus 54.1823 26.1982 -70.4151
rradius 94.4981
rwrist 2.98154
rhand -22.6146 25.4241
rfingers 7.12502
rthumb 3.81524 -4.52151
lclavicle 4.7112e-014 1.45113e-014
lhumerus 54.6651 -8.64945 67.3414
lradius 104.99
lwrist 26.691
lhand -28.0667 35.2575
lfingers 7.12502
lthumb -1.45031 65.2324
rfemur -20.3095 -14.4022 12.8853
rtibia 62.721
rfoot -10.0063 -17.4702
rtoes -34.246
lfemur -22.974 4.64494 -21.7504
ltibia 47.2195
lfoot -16.993 -9.73291
ltoes 3.69538
216
root -34.6797 15.4923 -0.185165 -177.416 63.6689 178.708
lowerback 13.8724 4.07652 -3.74138
upperback 7.57322 5.49684 0.00807351
thorax -0.092337 2.87881 1.34209
lowerneck 11.7782 -17.665 -22.9988
upperneck -15.5319 -24.3866 36.6398
head 1.85153 -13.5968 14.6248
rclavicle -9.93923e-017 -2.78299e-015
rhumerus 53.9782 26.7843 -70.3715
rradius 94.8332
rwrist 2.93112
rhand -22.593 25.2751
rfingers 7.12502
rthumb 3.83612 -4.67015
lclavicle -9.93923e-017 -2.78299e-015
lhumerus 53.8766 -8.51557 67.3038
lradius 105.638
lwrist 26.6086
lhand -28.0597 35.3055
lfingers 7.12502
lthumb -1.44356 65.2803
rfemur -20.5189 -14.877 13.0686
rtibia 63.3545
rfoot -10.7192 -16.6584
rtoes -33.0817
lfemur -23.3789 4.12732 -21.9183
ltibia 47.3732
lfoot -17.1156 -9.56581
ltoes 3.0289
217
root -34.6747 15.4983 -0.188801 -177.596 63.8821 178.561
lowerback 14.1041 4.23926 -3.95931
upperback 7.51497 5.67028 -0.0873569
thorax -0.293292 2.9645 1.31595
lowerneck 11.8955 -17.5748 -23.0648
upperneck -15.5593 -24.2744 36.8312
head 1.83917 -13.5604 14.752
rclavicle -7.2954e-014 5.82439e-014
rhumerus 53.6163 27.3317 -70.0735
rradius 95.2941
rwrist 2.98239
rhand -22.5677 25.0318
rfingers 7.12502
rthumb 3.86054 -4.91299
lclavicle -7.2954e-014 5.82439e-014
lhumerus 52.8767 -8.57788 67.4549
lradius 106.347
lwrist 26.6744
lhand -28.1656 35.1915
lfingers 7.12502
lthumb -1.54581 65.1657
rfemur -20.5196 -14.7484 13.2626
rtibia 63.9371
rfoot -11.6286 -15.7284
rtoes -30.6083
lfemur -23.2608 4.25641 -22.0478
ltibia 47.4897
lfoot -17.6585 -9.04827
ltoes -0.589828
218
root -34.6605 15.5016 -0.198069 -178.08 63.2946 178.177
lowerback 14.3206 4.18606 -4.09486
upperback 7.563 5.58778 -0.1956
thorax -0.351977 2.92851 1.27678
lowerneck 11.9958 -17.6554 -22.7272
upperneck -15.8039 -24.2732 36.9263
head 1.72609 -13.5917 14.7653
rclavicle -2.22142e-014 1.70955e-014
rhumerus 52.5796 27.8586 -70.9397
rradius 95.419
rwrist 3.75209
rhand -22.6475 25.2484
rfingers 7.12502
rthumb 3.78355 -4.69772
lclavicle -2.22142e-014 1.70955e-014
lhumerus 52.0414 -8.80691 67.5921
lradius 107.092
lwrist 26.8526
lhand -28.115 35.3478
lfingers 7.12502
lthumb -1.49702 65.3223
rfemur -20.1178 -15.3707 13.3332
rtibia 64.3971
rfoot -11.3949 -15.6188
rtoes -32.0234
lfemur -23.0125 3.92335 -22.2925
ltibia 47.5094
lfoot -18.4788 -8.27351
ltoes -8.48257
219
root -34.6472 15.4854 -0.209284 -178.504 62.9928 177.667
lowerback 14.2916 4.11893 -4.25812
upperback 7.54747 5.48123 -0.386217
thorax -0.341417 2.87596 1.18752
lowerneck 12.0208 -17.6901 -22.521
upperneck -15.8651 -24.2662 36.9518
head 1.6784 -13.5996 14.7553
rclavicle -1.04561e-013 1.31198e-014
rhumerus 52.4428 28.4652 -70.7034
rradius 95.6846
rwrist 3.73224
rhand -22.5934 25.0338
rfingers 7.12502
rthumb 3.83572 -4.91142
lclavicle -1.04561e-013 1.31198e-014
lhumerus 51.082 -8.89219 67.6199
lradius 107.784
lwrist 26.8165
lhand -28.066 35.6335
lfingers 7.12502
lthumb -1.44969 65.6084
rfemur -19.8323 -15.3996 13.2003
rtibia 64.8341
rfoot -12.2954 -14.5935
rtoes -28.8372
lfemur -22.9624 3.69045 -22.5902
ltibia 47.4622
lfoot -19.082 -7.91395
ltoes -12.6638
